# xmcd CD database file
#
# Track frame offsets:
#	150
#	26110
#	56137
#	73317
#	99755
#	121263
#	145420
#	167779
#	189264
#
# Disc length: 2847 seconds
#
# Revision: 0
# Processed by: cddbd v1.5.1PL2 Copyright (c) Steve Scherf et al.
# Submitted via: CDex 1.51
#
DISCID=7f0b1d09
DTITLE=Fleischer Jünemann Quartet - Four!
DYEAR=2005
DGENRE=Jazz
TTITLE0=Bbking
TTITLE1=Ablution
TTITLE2=Odd Couple
TTITLE3=Four!
TTITLE4=Kick Don't Kick
TTITLE5=Played Twice
TTITLE6=Thank You For Making My Dreams Come True
TTITLE7=What Thing!
TTITLE8=Out Of Nowhere
EXTD=YEAR: 2005
EXTT0=
EXTT1=
EXTT2=
EXTT3=
EXTT4=
EXTT5=
EXTT6=
EXTT7=
EXTT8=
PLAYORDER=
